<svg height="512.00003pt" viewBox="0 0 512.00003 512.00003" width="512.00003pt" xmlns="http://www.w3.org/2000/svg"><path d="m358.398438 256c0 56.554688-45.84375 102.398438-102.398438 102.398438-4.28125.019531-8.558594-.265626-12.800781-.851563-51.203125-6.414063-89.621094-49.945313-89.621094-101.546875s38.417969-95.132812 89.621094-101.546875c4.242187-.585937 8.519531-.871094 12.800781-.851563 56.554688 0 102.398438 45.84375 102.398438 102.398438zm0 0" fill="#00695c"/><path d="m332.800781 256c0-56.082031-40.117187-101.546875-89.601562-101.546875s-89.597657 45.464844-89.597657 101.546875 40.113282 101.546875 89.597657 101.546875 89.601562-45.464844 89.601562-101.546875zm0 0" fill="#009688"/><path d="m283.050781 246.785156c12.355469-2.808594 20.800781-14.234375 19.859375-26.871094-.945312-12.636718-10.988281-22.679687-23.625-23.625-12.636718-.941406-24.0625 7.503907-26.871094 19.859376" fill="#00695c"/><path d="m256 8.535156c-4.265625 0-8.535156.082032-12.714844.339844 131.441406 6.910156 234.472656 115.503906 234.472656 247.125s-103.03125 240.214844-234.472656 247.125c4.179688.257812 8.449219.339844 12.714844.339844 136.671875 0 247.464844-110.792969 247.464844-247.464844s-110.792969-247.464844-247.464844-247.464844zm0 0" fill="#c52828"/><path d="m243.285156 8.875h-.171875c-131.441406 6.910156-234.472656 115.503906-234.472656 247.125s103.03125 240.214844 234.472656 247.125h.171875c131.441406-6.910156 234.472656-115.503906 234.472656-247.125s-103.03125-240.214844-234.472656-247.125zm12.714844 451.925781c-4.351562 0-8.617188-.171875-12.886719-.425781-107.816406-6.941406-191.757812-96.335938-191.914062-204.375-.058594-39.203125 11.234375-77.582031 32.511719-110.507812 3.273437-5.179688 6.804687-10.191407 10.582031-15.015626l287.148437 287.230469c-35.8125 28-79.984375 43.175781-125.441406 43.09375zm146.773438-94.292969-272.296876-272.214843c32.425782-25.296875 71.757813-40.171875 112.808594-42.667969 4.179688-.253906 8.449219-.425781 12.714844-.425781 78.179688-.0625 149.566406 44.425781 183.945312 114.640625 34.382813 70.214844 25.753907 153.882812-22.238281 215.601562zm0 0" fill="#f44335"/><g fill="#00695c"><path d="m273.066406 102.398438c0 9.425781-7.640625 17.066406-17.066406 17.066406s-17.066406-7.640625-17.066406-17.066406c0-9.425782 7.640625-17.066407 17.066406-17.066407s17.066406 7.640625 17.066406 17.066407zm0 0"/><path d="m179.199219 362.667969c0 11.78125-9.550781 21.332031-21.332031 21.332031s-21.332032-9.550781-21.332032-21.332031c0-11.785157 9.550782-21.335938 21.332032-21.335938s21.332031 9.550781 21.332031 21.335938zm0 0"/><path d="m273.066406 409.601562c0 9.425782-7.640625 17.066407-17.066406 17.066407s-17.066406-7.640625-17.066406-17.066407c0-9.425781 7.640625-17.066406 17.066406-17.066406s17.066406 7.640625 17.066406 17.066406zm0 0"/><path d="m426.667969 256c0 9.425781-7.640625 17.066406-17.066407 17.066406-9.425781 0-17.066406-7.640625-17.066406-17.066406s7.640625-17.066406 17.066406-17.066406c9.425782 0 17.066407 7.640625 17.066407 17.066406zm0 0"/><path d="m128 256c0 9.425781-7.640625 17.066406-17.066406 17.066406-9.425782 0-17.066406-7.640625-17.066406-17.066406s7.640624-17.066406 17.066406-17.066406c9.425781 0 17.066406 7.640625 17.066406 17.066406zm0 0"/><path d="m384 149.332031c0 11.785157-9.550781 21.335938-21.332031 21.335938-11.785157 0-21.335938-9.550781-21.335938-21.335938 0-11.78125 9.550781-21.332031 21.335938-21.332031 11.78125 0 21.332031 9.550781 21.332031 21.332031zm0 0"/></g><path d="m256 0c-141.386719 0-256 114.613281-256 256s114.613281 256 256 256 256-114.613281 256-256c-.160156-141.320312-114.679688-255.839844-256-256zm0 494.933594c-131.960938 0-238.933594-106.972656-238.933594-238.933594s106.972656-238.933594 238.933594-238.933594 238.933594 106.972656 238.933594 238.933594c-.152344 131.898438-107.035156 238.78125-238.933594 238.933594zm0 0"/><path d="m314.027344 338.210938-27.648438-27.648438c-.078125-.078125-.136718-.152344-.214844-.222656l-185.835937-185.898438c-1.71875-1.746094-4.117187-2.65625-6.5625-2.484375-2.445313.152344-4.703125 1.347657-6.207031 3.277344-29.222656 37.3125-45.035156 83.371094-44.890625 130.765625.128906 117.765625 95.566406 213.203125 213.332031 213.332031 47.375.175781 93.425781-15.644531 130.6875-44.902343 1.925781-1.503907 3.117188-3.761719 3.265625-6.199219.152344-2.441407-.753906-4.828125-2.480469-6.558594zm-58.027344 62.855468c4.710938 0 8.535156 3.820313 8.535156 8.535156 0 4.710938-3.824218 8.53125-8.535156 8.53125s-8.535156-3.820312-8.535156-8.53125c0-4.714843 3.824218-8.535156 8.535156-8.535156zm0-51.199218c-31.695312.015624-61.253906-15.96875-78.589844-42.5-17.335937-26.53125-20.101562-60.023438-7.359375-89.042969l94.976563 95.011719c-5.722656 1.5625-11.628906 2.367187-17.5625 2.398437-4.710938 0-8.53125 3.820313-8.53125 8.53125 0 4.714844 3.820312 8.535156 8.53125 8.535156 10.632812-.03125 21.164062-2.054687 31.046875-5.972656l15.121093 15.128906c-11.851562 5.246094-24.671874 7.941407-37.632812 7.910157zm-89.078125 3.753906c4.996094 5 4.996094 13.101562 0 18.097656-5.066406 4.835938-13.035156 4.835938-18.101563 0-4.988281-4.996094-4.988281-13.089844 0-18.089844 5-4.996094 13.101563-4.996094 18.101563 0zm89.078125 98.644531c-108.34375-.121094-196.144531-87.921875-196.265625-196.265625-.125-40.277344 12.289063-79.59375 35.523437-112.496094l61.953126 61.96875c-6.679688 13.078125-10.683594 27.351563-11.785157 41.992188h-10.460937c-4.15625-11.753906-16.179688-18.804688-28.464844-16.695313-12.289062 2.109375-21.273438 12.761719-21.273438 25.230469s8.984376 23.121094 21.273438 25.230469c12.285156 2.109375 24.308594-4.941407 28.464844-16.695313h10.535156c1.859375 24.226563 11.667969 47.167969 27.898438 65.253906l-5.121094 5.117188c-10.90625-3.949219-23.109375-1.386719-31.503906 6.613281-11.332032 11.210938-11.894532 29.332031-1.277344 41.222657 10.617187 11.886718 28.6875 13.371093 41.101562 3.375 12.417969-9.996094 14.820313-27.96875 5.46875-40.875l3.585938-3.585938c17.554687 14.449219 39.144531 23.125 61.8125 24.84375v19.070312c-11.753906 4.15625-18.804688 16.175782-16.695313 28.464844 2.109375 12.289063 12.761719 21.269532 25.230469 21.269532s23.121094-8.980469 25.230469-21.269532c2.109375-12.289062-4.941407-24.308594-16.695313-28.464844v-19.199218c14.578125-1.101563 28.792969-5.097656 41.8125-11.75l62.113282 62.128906c-32.875 23.261719-72.191407 35.679688-112.460938 35.515625zm-136.535156-196.265625c0 4.710938-3.820313 8.535156-8.53125 8.535156-4.714844 0-8.535156-3.824218-8.535156-8.535156s3.820312-8.535156 8.535156-8.535156c4.710937 0 8.53125 3.824218 8.53125 8.535156zm0 0"/><path d="m256 42.667969c-47.394531-.144531-93.453125 15.667969-130.765625 44.890625-1.941406 1.503906-3.140625 3.769531-3.292969 6.222656-.152344 2.449219.757813 4.847656 2.5 6.578125l185.890625 185.804687c.058594.070313.136719.128907.203125.199219l101.136719 101.109375c1.601563 1.601563 3.773437 2.5 6.035156 2.5h.527344c2.441406-.144531 4.699219-1.335937 6.195313-3.269531 29.261718-37.265625 45.082031-83.320313 44.902343-130.703125-.128906-117.765625-95.566406-213.203125-213.332031-213.332031zm0 68.265625c-4.710938 0-8.535156-3.820313-8.535156-8.535156 0-4.710938 3.824218-8.53125 8.535156-8.53125s8.535156 3.820312 8.535156 8.53125c0 4.714843-3.824218 8.535156-8.535156 8.535156zm0 51.199218c31.6875-.015624 61.242188 15.964844 78.578125 42.488282 17.335937 26.527344 20.113281 60.011718 7.378906 89.027344l-15.128906-15.136719c3.917969-9.882813 5.941406-20.414063 5.972656-31.046875 0-4.710938-3.820312-8.53125-8.535156-8.53125-4.710937 0-8.53125 3.820312-8.53125 8.53125-.03125 5.933594-.835937 11.839844-2.398437 17.5625l-15.769532-15.761719c8.757813-6.375 13.925782-16.566406 13.898438-27.398437 0-18.851563-15.28125-34.132813-34.132813-34.132813-10.832031-.023437-21.023437 5.148437-27.398437 13.910156l-31.574219-31.574219c11.867187-5.210937 24.679687-7.914062 37.640625-7.9375zm93.867188-12.800781c0-5.792969 3.886718-10.863281 9.484374-12.363281 5.59375-1.503906 11.5.941406 14.398438 5.957031 2.898438 5.019531 2.066406 11.355469-2.03125 15.453125-5.0625 4.832032-13.03125 4.832032-18.097656 0-2.410156-2.394531-3.761719-5.648437-3.753906-9.046875zm-87.605469 64.640625c2.894531-5.652344 8.722656-9.199218 15.070312-9.171875 9.425781 0 17.066407 7.640625 17.066407 17.066407.027343 6.351562-3.519532 12.175781-9.171876 15.070312zm154.457031 154.453125-61.945312-61.925781c6.679687-13.066406 10.691406-27.332031 11.800781-41.964844h18.996093c4.15625 11.753906 16.175782 18.804688 28.464844 16.695313 12.289063-2.109375 21.269532-12.761719 21.269532-25.230469s-8.980469-23.121094-21.269532-25.230469c-12.289062-2.109375-24.308594 4.941407-28.464844 16.695313h-19.070312c-1.707031-22.675782-10.371094-44.273438-24.816406-61.839844l8.976562-8.984375c11.257813 5 24.433594 2.539063 33.125-6.1875 5.601563-5.601563 8.75-13.199219 8.75-21.121094s-3.148437-15.515625-8.75-21.117187c-11.820312-11.277344-30.417968-11.277344-42.238281 0-9.972656 9.949218-11.609375 25.523437-3.925781 37.332031l-7.84375 7.84375c-18.082032-16.230469-41.015625-26.035156-65.242188-27.890625v-19.070312c11.753906-4.15625 18.804688-16.175782 16.695313-28.464844-2.109375-12.289063-12.761719-21.269532-25.230469-21.269532s-23.121094 8.980469-25.230469 21.269532c-2.109375 12.289062 4.941407 24.308594 16.695313 28.464844v18.996093c-14.640625 1.101563-28.914063 5.105469-41.992188 11.785157l-61.96875-61.953126c32.902344-23.234374 72.21875-35.648437 112.496094-35.523437 108.34375.121094 196.144531 87.921875 196.265625 196.265625.152344 40.257812-12.261719 79.554688-35.515625 112.417969zm-15.652344-112.425781c0-4.710938 3.820313-8.535156 8.535156-8.535156 4.710938 0 8.53125 3.824218 8.53125 8.535156s-3.820312 8.535156-8.53125 8.535156c-4.714843 0-8.535156-3.824218-8.535156-8.535156zm0 0"/><path d="m218.625 299.296875c-1.035156.4375-1.988281 1.046875-2.816406 1.800781-1.558594 1.636719-2.445313 3.800782-2.476563 6.058594.015625 1.117188.246094 2.21875.683594 3.242188.414063 1.046874 1.019531 2 1.792969 2.816406.832031.75 1.785156 1.355468 2.816406 1.792968 1.027344.433594 2.125.667969 3.242188.683594 2.257812-.039062 4.421874-.921875 6.058593-2.476562.769531-.816406 1.378907-1.769532 1.792969-2.816406.4375-1.023438.667969-2.125.679688-3.242188-.03125-2.257812-.914063-4.421875-2.472657-6.058594-2.476562-2.378906-6.117187-3.085937-9.300781-1.800781zm0 0"/><path d="m193.023438 273.699219c-1.035157.433593-1.984376 1.042969-2.816407 1.800781-1.558593 1.632812-2.441406 3.796875-2.472656 6.058594.011719 1.113281.246094 2.214844.679687 3.242187.414063 1.042969 1.023438 2 1.792969 2.816407.832031.75 1.785157 1.355468 2.816407 1.789062 1.027343.4375 2.128906.667969 3.242187.683594 2.257813-.035156 4.421875-.917969 6.058594-2.472656.773437-.816407 1.378906-1.773438 1.792969-2.816407.4375-1.027343.667968-2.128906.683593-3.242187-.03125-2.261719-.917969-4.425782-2.476562-6.058594-2.472657-2.382812-6.117188-3.085938-9.300781-1.800781zm0 0"/></svg>