<svg id="Layer_2" enable-background="new 0 0 64 64" height="512" viewBox="0 0 64 64" width="512" xmlns="http://www.w3.org/2000/svg"><g><g><g><path d="m22 58v4c0 .01-16 0-16 0v-9c2.06 3.01 5.53 4.99 9.45 4.98l6.55.01z" fill="#ef7385"/></g><g><path d="m22 52h4v5.99h-4l-6.55-.01c-3.92.01-7.39-1.97-9.45-4.98v-.01c-1.26-1.83-2-4.06-2-6.45v-5.67c0-1.84.62-3.57 1.67-4.95 1.06-1.39 2.56-2.44 4.33-2.92 1.32.66 2.77 1 4.24 1h1.76c1.88 1.25 3.38 2.93 4.41 4.86 1.03 1.92 1.59 4.1 1.59 6.35z" fill="#ef7385"/></g><g><path d="m54 53.99v8.01c-5.24 0-12 0-12-.01v-7.99-6-.84c0-1.93.38-3.77 1.08-5.46l9.92-2.71-1-2 4.84-1.94c.59.58 1.1 1.24 1.54 1.94 1.04 1.69 1.62 3.65 1.62 5.71v11.29zm-4-2c1.1 0 2-.89 2-2v-4h-6v4c0 1.11.9 2 2 2z" fill="#e6e9ed"/></g><g><path d="m54 32.99c1.07.53 2.02 1.23 2.84 2.06l-4.84 1.94 1 2-9.92 2.71c1.03-2.5 2.74-4.66 4.93-6.21 1.73-1.26 3.77-2.13 5.99-2.5z" fill="#5cd6b3"/></g><g><path d="m52 45.99v4c0 1.11-.9 2-2 2h-2c-1.1 0-2-.89-2-2v-4z" fill="#5cd6b3"/></g><g><path d="m51.69 10.38c-.47.97-1.47 1.63-2.61 1.62h-8.08c-.34 0-.68-.03-1-.1-.98-.2-1.86-.68-2.54-1.36-.9-.91-1.46-2.16-1.46-3.54 0-2.76 2.24-5 5-5h8.02c3.58 0 6.83 1.45 9.18 3.8s3.8 5.6 3.8 9.18c0 4.91-2.78 9.41-7.17 11.61l-.83.41v-5.99l1.41-1.41c.38-.38.59-.89.59-1.42v-.17c0-1.1-.9-2-2-2v-2.01c0-1.6-.94-2.99-2.31-3.62z" fill="#b27946"/></g><g><path d="m29 6v4h-5-7.99c-3.32 0-6.01 2.69-6.01 6.01-.55 0-1.05.23-1.41.59-.37.36-.59.86-.59 1.41v.17c0 .53.21 1.04.59 1.42l1.41 1.41v1.99 4l-.83-.41c-4.39-2.2-7.17-6.7-7.17-11.61 0-3.58 1.45-6.83 3.8-9.18s5.6-3.8 9.18-3.8h14.02z" fill="#fcd770"/></g><g><path d="m32 28c5.52 0 10 4.48 10 10 0 3.63-1.93 6.8-4.82 8.56-.34-.35-.82-.56-1.33-.56-1 0-1.82.8-1.85 1.8-.65.13-1.31.2-2 .2-5.52 0-10-4.48-10-10s4.48-10 10-10z" fill="#5cd6b3"/></g><g><path d="m29 40c1.66 0 3-1.34 3-3 0-1.16-.65-2.15-1.6-2.66.49-.22 1.03-.34 1.6-.34 1.1 0 2.1.45 2.83 1.17.72.73 1.17 1.73 1.17 2.83s-.45 2.1-1.17 2.83c-.73.72-1.73 1.17-2.83 1.17s-2.1-.45-2.83-1.17c-.25-.25-.47-.54-.64-.85l.01-.01c.15.02.3.03.46.03z" fill="#ed5565"/></g><g><path d="m32 37c0 1.66-1.34 3-3 3-.16 0-.31-.01-.46-.03l-.01.01c-.34-.59-.53-1.26-.53-1.98 0-1.1.45-2.1 1.17-2.83.35-.35.77-.63 1.23-.83.95.51 1.6 1.5 1.6 2.66z" fill="#ef7385"/></g><g><path d="m34 55c0 1.66-1.34 3-3 3l-5-.01v-5.99l.49-.98c.31-.62.95-1.02 1.66-1.02 1.02 0 1.85.83 1.85 1.85v.15h.17.83c.83 0 1.58.34 2.12.88.31.31.56.69.7 1.12z" fill="#f0d0b4"/></g><g><path d="m34 47.8c.03-1 .85-1.8 1.85-1.8.51 0 .99.21 1.33.56.13.13.24.29.33.46l.49.98h4v6h-8.17-.01c-.14-.43-.39-.81-.7-1.12-.54-.54-1.29-.88-2.12-.88h-.83c-.11-.31-.17-.65-.17-1 0-.83.34-1.58.88-2.12s1.29-.88 2.12-.88h1v-.15c0-.02 0-.03 0-.05z" fill="#f0d0b4"/></g><g><path d="m60 53.99v8.01s-2.7 0-6 0v-8.01z" fill="#f0d0b4"/></g><g><path d="m48 28.86-3.53 1.01c-.31.08-.64.13-.96.13-1.94 0-3.51-1.57-3.51-3.51v-.49h1.99c2.21 0 4.01-1.8 4.01-4.01l-6 .01v-1.99l-2-2c1.28-1.28 2-3.02 2-4.83v-1.28c.32.07.66.1 1 .1h8.08c1.14.01 2.14-.65 2.61-1.62 1.37.63 2.31 2.02 2.31 3.62v2.01c1.1 0 2 .9 2 2v.17c0 .53-.21 1.04-.59 1.42l-1.41 1.41v5.99 5.99c-2.22.37-4.26 1.24-5.99 2.5l-.01-.01z" fill="#f0d0b4"/></g><g><path d="m24 26.44c0 1.97-1.59 3.56-3.56 3.56-.29 0-.58-.04-.87-.11l-3.57-.89v-11h2.39c2.26 0 4.36-1.13 5.61-3 0 1.81.72 3.55 2 4.83l-2 2v.17 4z" fill="#5cd6b3"/></g><g><path d="m40 22 6-.01c0 2.21-1.8 4.01-4.01 4.01h-1.99z" fill="#ef7385"/></g><g><path d="m16 29v5h-1.76c-1.47 0-2.92-.34-4.24-1v-6-4z" fill="#f0d0b4"/></g><g><path d="m16 18v11l-6-6v-1.99l-1.41-1.41c-.38-.38-.59-.89-.59-1.42v-.17c0-.55.22-1.05.59-1.41.36-.36.86-.59 1.41-.59z" fill="#f0d0b4"/></g><g><path d="m18.39 18h-2.39l-6-1.99c0-3.32 2.69-6.01 6.01-6.01h7.99v5c-1.25 1.87-3.35 3-5.61 3z" fill="#f0d0b4"/></g></g><path d="m49.021 1h-8.021c-3.309 0-6 2.691-6 6 0 2.606 1.673 4.824 4 5.651v.53c0 1.557-.606 3.021-1.707 4.122l-.707.707 2.414 2.414v6.067c0 2.487 2.022 4.509 4.509 4.509.418 0 .835-.058 1.239-.173l2.252-.644v4.797c-1.732 1.328-3.158 3.009-4.185 4.935.109-.626.185-1.262.185-1.915 0-6.065-4.935-11-11-11-6.038 0-10.951 4.891-10.996 10.918-1.004-1.718-2.344-3.244-4.004-4.441v-3.196l2.332.583c.36.09.733.136 1.106.136 2.516 0 4.562-2.046 4.562-4.562v-4.196l2.414-2.414-.707-.707c-1.101-1.1-1.707-2.564-1.707-4.121v-4h4v-2h-12.99c-3.579 0-6.541 2.696-6.959 6.164-1.191.398-2.051 1.524-2.051 2.846v.171c0 .801.312 1.555.879 2.122l1.121 1.121v3.93c-3.717-2.136-6-6.047-6-10.376 0-6.604 5.374-11.978 11.979-11.978h14.021v-2h-14.021c-7.708 0-13.979 6.271-13.979 13.979 0 5.329 2.961 10.12 7.728 12.503l.272.136v4.653c-3.568 1.312-6 4.744-6 8.598v5.672c0 2.437.702 4.764 2 6.76v9.698l14.5.005 1.813-.001c.791-.001 1.687-.003 1.687-1.003v-3.009l8 .009c2.206 0 4-1.794 4-4h6v6.994c0 1 .861 1.002 1.772 1.003l8.228.003 10-.003v-20.299c0-4.307-2.285-8.194-6-10.297v-4.783l.273-.136c4.766-2.383 7.727-7.174 7.727-12.503 0-7.708-6.271-13.979-13.979-13.979zm-8.021 21.998 3.829-.007c-.414 1.17-1.531 2.009-2.839 2.009h-.99zm8 6.614 2.275-.65-.55-1.923-6.526 1.865c-.225.064-.457.096-.69.096-1.209 0-2.221-.86-2.456-2h.937c2.763 0 5.01-2.248 5.01-5.01v-1.001l-6 .01v-1.402l-1.63-1.63c1.058-1.364 1.63-3.03 1.63-4.784v-.18l8.078.003h.001c1.047 0 2.032-.408 2.772-1.147.04-.04.068-.088.106-.129.65.561 1.043 1.387 1.043 2.27v3.01h1c.551 0 1 .449 1 1v.171c0 .267-.104.519-.293.708l-1.707 1.707v11.59c-1.425.318-2.767.822-4 1.492zm4.841 4.427c.388.21.757.445 1.108.699l-4.329 1.731.94 1.882-6.572 1.792c1.91-3.101 5.057-5.379 8.853-6.104zm-15.223 12.961-.085-.171c1.171-.864 2.139-1.925 2.871-3.132-.244 1.066-.385 2.169-.397 3.302h-2.389zm-6.618-18c4.962 0 9 4.037 9 9 0 2.964-1.427 5.656-3.827 7.343-.401-.21-.845-.343-1.319-.343-1.244 0-2.299.803-2.69 1.916-.386.05-.774.084-1.164.084-4.962 0-9-4.037-9-9s4.038-9 9-9zm-2.306 19.753c-.116.17-.209.355-.298.542-.378-.186-.801-.295-1.25-.295-1.088 0-2.066.604-2.553 1.578l-.211.422h-2.382v-5.789c0-.332-.036-.657-.059-.985 1.568 2.273 3.965 3.929 6.753 4.527zm-15.458-15.753c-1.107 0-2.211-.234-3.236-.658v-6.928l4 4v3.586zm9.179-12h-4.415v2h4v2h-4v2h3.934c-.257 1.143-1.276 2-2.495 2-.209 0-.418-.026-.621-.077l-2.818-.704v-9.219h1.395c1.835 0 3.569-.656 4.94-1.797.272.929.696 1.807 1.296 2.581zm-7.405-10h6.99v3.666c-1.08 1.462-2.776 2.334-4.605 2.334h-2.233l-5.091-1.688c.343-2.43 2.416-4.312 4.939-4.312zm-7.01 7.01c0-.516.398-.927.9-.98l5.1 1.691v7.864l-4-4v-1.99l-1.707-1.707c-.189-.188-.293-.439-.293-.706zm-4 22.859c0-3.108 2.033-5.848 4.968-6.797 1.341.599 2.802.928 4.268.928h1.431c3.338 2.334 5.333 6.125 5.333 10.211v5.789h-5c-2.757 0-5-2.243-5-5v-5h-2v5c0 3.859 3.14 7 7 7h9v3.993l-9.55-.011c-.003 0-.005 0-.008 0-2.787 0-5.408-1.085-7.38-3.056-1.975-1.972-3.062-4.595-3.062-7.385zm16 20.134c-2.54.004-9.459-.001-14-.002v-5.34c2.307 2.138 5.28 3.321 8.439 3.321h.01l5.551.007zm10.001-4.003-4.001-.005v-4.759l.382-.764c.145-.291.438-.472.764-.472.471 0 .854.384.854.854v1.146h2c1.103 0 2 .897 2 2s-.897 2-1.999 2zm3.443-4c-.694-1.19-1.97-2-3.444-2 0-1.103.897-2 2-2h2v-1.146c0-.47.383-.854.854-.854.326 0 .619.181.764.473l.764 1.527h3.618v4zm20.556 7.999v-6.004h4v6.003c-1.211 0-2.58 0-4 .001zm-4-11.005c0 .552-.449 1-1 1h-2c-.551 0-1-.448-1-1v-3h4zm8-7.296v10.296h-6v-10h-2v2h-6v5c0 1.654 1.346 3 3 3h2c.352 0 .686-.072 1-.184v.184c0 1.103.897 2 2 2v6.005c-4.071.001-8.177 0-10-.001v-13.842c0-1.62.287-3.177.816-4.621l10.624-2.898-1.06-2.118 3.193-1.277c1.534 1.757 2.427 4.02 2.427 6.456zm-4-17.343v-3.931l1.121-1.121c.567-.566.879-1.32.879-2.121v-.172c0-1.304-.836-2.416-2-2.829v-1.181c0-1.63-.809-3.138-2.108-4.065.065-.297.108-.604.108-.926 0-2.211-1.794-4.009-3.999-4.009v2c1.102 0 1.999.901 1.999 2.084 0 .513-.2.996-.563 1.358s-.845.562-1.358.562l-8.079-.002c-2.206-.001-4-1.796-4-4.002s1.794-4 4-4h8.021c6.605 0 11.979 5.374 11.979 11.979 0 4.329-2.283 8.24-6 10.376z"/><path d="m46 15c-1.654 0-3 1.346-3 3v1h2v-1c0-.551.449-1 1-1s1 .449 1 1v1h2v-1c0-1.654-1.346-3-3-3z"/><circle cx="18" cy="14" r="1"/><path d="m19 5h10v2h-10z"/><path d="m27.833 40.753-1.54 1.54 1.414 1.414 1.54-1.54c.525.348 1.116.602 1.753.732v2.101h2v-2.101c.637-.13 1.229-.384 1.753-.732l1.54 1.54 1.414-1.414-1.54-1.54c.348-.524.602-1.116.732-1.753h2.101v-2h-2.101c-.13-.637-.384-1.228-.732-1.753l1.54-1.54-1.414-1.414-1.54 1.54c-.525-.348-1.116-.602-1.753-.732v-2.101h-2v2.101c-.637.13-1.229.384-1.753.732l-1.54-1.54-1.414 1.414 1.54 1.54c-.348.524-.602 1.116-.732 1.753h-2.101v2h2.101c.13.637.384 1.228.732 1.753zm7.167-2.753c0 1.654-1.346 3-3 3-.499 0-.963-.134-1.378-.351 1.398-.624 2.378-2.021 2.378-3.649 0-.699-.186-1.365-.514-1.951 1.423.234 2.514 1.463 2.514 2.951zm-4.674-2.488c.421.374.674.908.674 1.488 0 1.041-.803 1.89-1.821 1.982-.108-.309-.179-.636-.179-.982 0-1.035.527-1.949 1.326-2.488z"/></g></svg>